/* XPM */
static char * menu_xpm[] = {
"32 32 663 2",
"  	c None",
". 	c #7B7B7B",
"+ 	c #393939",
"@ 	c #3A3A3A",
"# 	c #3B3B3B",
"$ 	c #3D3D3D",
"% 	c #343434",
"& 	c #7D7D7D",
"* 	c #BDBEBD",
"= 	c #505050",
"- 	c #383838",
"; 	c #363737",
"> 	c #39393A",
", 	c #3C3C3C",
"' 	c #363636",
") 	c #C2C2C2",
"! 	c #6A6668",
"~ 	c #363338",
"{ 	c #373A3D",
"] 	c #353839",
"^ 	c #46403F",
"/ 	c #7E6C6C",
"( 	c #8E7471",
"_ 	c #8C6E69",
": 	c #8F6E6B",
"< 	c #8F706B",
"[ 	c #90746F",
"} 	c #917871",
"| 	c #7A6A64",
"1 	c #3F3C35",
"2 	c #373B38",
"3 	c #3E3C3F",
"4 	c #3F313B",
"5 	c #686969",
"6 	c #D6D5D6",
"7 	c #444244",
"8 	c #414241",
"9 	c #43413F",
"0 	c #605452",
"a 	c #917B70",
"b 	c #937165",
"c 	c #815244",
"d 	c #8D594B",
"e 	c #A97465",
"f 	c #AB7970",
"g 	c #A9786F",
"h 	c #9E6E65",
"i 	c #7F4F46",
"j 	c #7C4E43",
"k 	c #98746A",
"l 	c #87746B",
"m 	c #58544F",
"n 	c #424342",
"o 	c #3E4242",
"p 	c #434545",
"q 	c #D4D4D6",
"r 	c #DDDDDD",
"s 	c #474748",
"t 	c #4A4A55",
"u 	c #4B4E49",
"v 	c #847768",
"w 	c #926A58",
"x 	c #6F3A27",
"y 	c #DFA895",
"z 	c #F0BAAC",
"A 	c #E9B9AC",
"B 	c #E0B9AD",
"C 	c #DFBBAF",
"D 	c #E2BBB1",
"E 	c #E6BAB1",
"F 	c #ECBCB5",
"G 	c #EBBEAF",
"H 	c #CC9687",
"I 	c #6F352B",
"J 	c #926F60",
"K 	c #7B735F",
"L 	c #4C4946",
"M 	c #4B4D4F",
"N 	c #474950",
"O 	c #DFDEE4",
"P 	c #575757",
"Q 	c #585758",
"R 	c #564E4F",
"S 	c #B39A8D",
"T 	c #754531",
"U 	c #CE9482",
"V 	c #E5B4A8",
"W 	c #E0B2AB",
"X 	c #E2B4B0",
"Y 	c #DBB5B2",
"Z 	c #D7BBB7",
"` 	c #E3C2B9",
" .	c #E3C0B8",
"..	c #DDB9B1",
"+.	c #DBB5AD",
"@.	c #D6BEAC",
"#.	c #DDB8A7",
"$.	c #F1B2A8",
"%.	c #C68479",
"&.	c #784234",
"*.	c #B0948C",
"=.	c #594F50",
"-.	c #54555A",
";.	c #4D4F4E",
">.	c #69696A",
",.	c #5F5F5F",
"'.	c #5D5E5C",
").	c #917D6F",
"!.	c #7C3E2F",
"~.	c #DF8D7F",
"{.	c #D79D90",
"].	c #CCA497",
"^.	c #CCA095",
"/.	c #D3A198",
"(.	c #D29F97",
"_.	c #D9AAA0",
":.	c #E9C6BE",
"<.	c #E6C4BB",
"[.	c #CCB0A7",
"}.	c #F2DED4",
"|.	c #F0D7D1",
"1.	c #CBA19B",
"2.	c #D0A098",
"3.	c #D39C8F",
"4.	c #C88D80",
"5.	c #774235",
"6.	c #917775",
"7.	c #5F5F5D",
"8.	c #5B6158",
"9.	c #686866",
"0.	c #B4B7B7",
"a.	c #6C6B71",
"b.	c #746D6C",
"c.	c #776A5D",
"d.	c #854232",
"e.	c #C17168",
"f.	c #C87871",
"g.	c #C17D74",
"h.	c #F4E2DC",
"i.	c #BC9F96",
"j.	c #F1E7E6",
"k.	c #F8F2EB",
"l.	c #C4A19E",
"m.	c #E4D0D0",
"n.	c #E7AFAF",
"o.	c #EFEBE1",
"p.	c #BD7573",
"q.	c #C77D76",
"r.	c #CB7B75",
"s.	c #BB6A5F",
"t.	c #844234",
"u.	c #756B5B",
"v.	c #6B6E71",
"w.	c #6D6C6F",
"x.	c #B1B1B1",
"y.	c #6F7070",
"z.	c #727D7C",
"A.	c #7C6D67",
"B.	c #804C43",
"C.	c #9D4C41",
"D.	c #BD615A",
"E.	c #BD605C",
"F.	c #B56460",
"G.	c #EFD8D4",
"H.	c #B08E87",
"I.	c #E7DADB",
"J.	c #F9F0EB",
"K.	c #AA8280",
"L.	c #CFB7B4",
"M.	c #C58B8A",
"N.	c #99504F",
"O.	c #B7635D",
"P.	c #BF5F5B",
"Q.	c #C1665F",
"R.	c #A0423B",
"S.	c #814F45",
"T.	c #79736F",
"U.	c #79797A",
"V.	c #727272",
"W.	c #BEB6B6",
"X.	c #868685",
"Y.	c #828B84",
"Z.	c #7D5A50",
"`.	c #9A4036",
" +	c #A94C41",
".+	c #BD5652",
"++	c #BC5451",
"@+	c #B75B55",
"#+	c #F0D5D2",
"$+	c #AB8781",
"%+	c #E0D3D5",
"&+	c #EEDFD8",
"*+	c #8C6261",
"=+	c #CBAFA9",
"-+	c #9F625D",
";+	c #914545",
">+	c #B55853",
",+	c #C05350",
"'+	c #B75550",
")+	c #B14741",
"!+	c #9A403B",
"~+	c #806058",
"{+	c #868483",
"]+	c #848484",
"^+	c #B9B9B9",
"/+	c #9A9B99",
"(+	c #919390",
"_+	c #988B86",
":+	c #8E5247",
"<+	c #AB4130",
"[+	c #A94A3E",
"}+	c #BD534E",
"|+	c #C35955",
"1+	c #B65852",
"2+	c #EFD4D0",
"3+	c #9E7E75",
"4+	c #E1D6D6",
"5+	c #F0E6DD",
"6+	c #96706D",
"7+	c #CBADA2",
"8+	c #A6665F",
"9+	c #8D4041",
"0+	c #B55750",
"a+	c #C3564F",
"b+	c #B85351",
"c+	c #A6483B",
"d+	c #AB463C",
"e+	c #8F4F46",
"f+	c #978F8E",
"g+	c #929393",
"h+	c #999999",
"i+	c #959796",
"j+	c #9BA39E",
"k+	c #987B6F",
"l+	c #A74E3F",
"m+	c #B34F46",
"n+	c #B54F49",
"o+	c #B94D49",
"p+	c #B94F4C",
"q+	c #B1534B",
"r+	c #E4CCC6",
"s+	c #EEEAE6",
"t+	c #E9DFDA",
"u+	c #C8A8AA",
"v+	c #B96A6E",
"w+	c #913B41",
"x+	c #AB5143",
"y+	c #B04D48",
"z+	c #B24D47",
"A+	c #B15045",
"B+	c #B45046",
"C+	c #A95147",
"D+	c #967E79",
"E+	c #9F9FA4",
"F+	c #97979B",
"G+	c #CECECE",
"H+	c #A9A8A8",
"I+	c #A8ACA9",
"J+	c #93695C",
"K+	c #C2594B",
"L+	c #BE5653",
"M+	c #BE5752",
"N+	c #C15552",
"O+	c #C25653",
"P+	c #BB554F",
"Q+	c #EACDC9",
"R+	c #CAA8AC",
"S+	c #BF7274",
"T+	c #9C4149",
"U+	c #BD574B",
"V+	c #C35254",
"W+	c #C25550",
"X+	c #C35450",
"Y+	c #C15751",
"Z+	c #B95B51",
"`+	c #93726A",
" @	c #ACABB0",
".@	c #A9AAAE",
"+@	c #CFCBC7",
"@@	c #C1C1C1",
"#@	c #B4B2B3",
"$@	c #B6B2B1",
"%@	c #935C54",
"&@	c #D25B51",
"*@	c #CE595B",
"=@	c #CF5A5A",
"-@	c #D05A5A",
";@	c #D0595A",
">@	c #CF5959",
",@	c #D89899",
"'@	c #9B6E67",
")@	c #BE7D76",
"!@	c #A24B51",
"~@	c #CB5F54",
"{@	c #D7555D",
"]@	c #D15B59",
"^@	c #D35B5A",
"/@	c #CD5B58",
"(@	c #C86059",
"_@	c #8F655B",
":@	c #B6B1B4",
"<@	c #B1B6B6",
"[@	c #C2BEBC",
"}@	c #BCBCBC",
"|@	c #BEBEBE",
"1@	c #BDB7B7",
"2@	c #95564F",
"3@	c #E0605A",
"4@	c #D95F63",
"5@	c #D76061",
"6@	c #D26361",
"7@	c #CB635F",
"8@	c #C05A55",
"9@	c #843B34",
"0@	c #AB8D8A",
"a@	c #8E7E79",
"b@	c #5C2614",
"c@	c #845240",
"d@	c #7E3738",
"e@	c #B76250",
"f@	c #CD6262",
"g@	c #D0645E",
"h@	c #D6615E",
"i@	c #D8605F",
"j@	c #D8625F",
"k@	c #956156",
"l@	c #BFB8B6",
"m@	c #BAC0BD",
"n@	c #BCBAB7",
"o@	c #C0C0C0",
"p@	c #C2C5C5",
"q@	c #C3C0C0",
"r@	c #985852",
"s@	c #E76962",
"t@	c #E06E6F",
"u@	c #A74E44",
"v@	c #732A1B",
"w@	c #6F3622",
"x@	c #672F1B",
"y@	c #703220",
"z@	c #89655B",
"A@	c #624036",
"B@	c #73361E",
"C@	c #825741",
"D@	c #5A241E",
"E@	c #6B3116",
"F@	c #7A2F24",
"G@	c #882C22",
"H@	c #BE544E",
"I@	c #E16C6B",
"J@	c #E46969",
"K@	c #9A6055",
"L@	c #C7BEBA",
"M@	c #C0C6C3",
"N@	c #BDBDBA",
"O@	c #C3C9C9",
"P@	c #CBC2C6",
"Q@	c #985D56",
"R@	c #9E4633",
"S@	c #773327",
"T@	c #70331E",
"U@	c #723620",
"V@	c #733A23",
"W@	c #753B25",
"X@	c #773E27",
"Y@	c #9C6A65",
"Z@	c #784C45",
"`@	c #813E27",
" #	c #925F56",
".#	c #5B2D26",
"+#	c #7C3620",
"@#	c #713927",
"##	c #743625",
"$#	c #713221",
"%#	c #7E3627",
"&#	c #AA5149",
"*#	c #9C7064",
"=#	c #C5C0B8",
"-#	c #C3C7CA",
";#	c #C3C0C3",
">#	c #CACACA",
",#	c #C7CBCB",
"'#	c #B8B3B7",
")#	c #AC807A",
"!#	c #833523",
"~#	c #7E372D",
"{#	c #7D3C29",
"]#	c #7F3D2A",
"^#	c #833F2E",
"/#	c #84412F",
"(#	c #84412E",
"_#	c #A8706E",
":#	c #895752",
"<#	c #9B4B32",
"[#	c #925044",
"}#	c #68352F",
"|#	c #8A3E29",
"1#	c #7E3D2E",
"2#	c #7C3D2C",
"3#	c #7A3C2B",
"4#	c #7C3929",
"5#	c #803628",
"6#	c #B18F85",
"7#	c #C0BFB9",
"8#	c #C4C7CA",
"9#	c #CECACC",
"0#	c #E1E1E1",
"a#	c #AFAEAE",
"b#	c #78787B",
"c#	c #C8B0AA",
"d#	c #82422F",
"e#	c #8B4035",
"f#	c #8B4234",
"g#	c #8F4436",
"h#	c #95483B",
"i#	c #9A483D",
"j#	c #9F4D40",
"k#	c #B57676",
"l#	c #9B6460",
"m#	c #B75744",
"n#	c #AE594D",
"o#	c #A26262",
"p#	c #EADCDD",
"q#	c #753E3A",
"r#	c #9B4936",
"s#	c #8E453A",
"t#	c #894435",
"u#	c #874132",
"v#	c #854333",
"w#	c #844836",
"x#	c #BEA6A3",
"y#	c #7B7D7B",
"z#	c #BCBDBE",
"A#	c #E3DEE0",
"B#	c #8F8C8C",
"C#	c #8C9194",
"D#	c #A69F99",
"E#	c #88523F",
"F#	c #97493F",
"G#	c #974A3E",
"H#	c #9C4B40",
"I#	c #A54E46",
"J#	c #AC5149",
"K#	c #B3554D",
"L#	c #C68184",
"M#	c #A86D6C",
"N#	c #CB605A",
"O#	c #C8605A",
"P#	c #C75E62",
"Q#	c #CCA4A3",
"R#	c #824845",
"S#	c #AB5141",
"T#	c #9F4F45",
"U#	c #9D4B41",
"V#	c #9A493E",
"W#	c #91483A",
"X#	c #864E3B",
"Y#	c #AC9C9D",
"Z#	c #8A9190",
"`#	c #8F8E8D",
" $	c #B4B3B3",
".$	c #9A9C9F",
"+$	c #A2A1A1",
"@$	c #9B786E",
"#$	c #AB4E45",
"$$	c #A85249",
"%$	c #A9534E",
"&$	c #AF5553",
"*$	c #BD5B5A",
"=$	c #C85F60",
"-$	c #D18D92",
";$	c #B77C87",
">$	c #DF7185",
",$	c #DB7284",
"'$	c #DE6D82",
")$	c #DBACB0",
"!$	c #945153",
"~$	c #B95758",
"{$	c #AB5653",
"]$	c #AB5656",
"^$	c #B04F43",
"/$	c #9F4F41",
"($	c #AE8B82",
"_$	c #A39FA0",
":$	c #9C9D9E",
"<$	c #B3B3B3",
"[$	c #DCDBDB",
"}$	c #AAA7AB",
"|$	c #ABACAD",
"1$	c #DDCFC4",
"2$	c #A15A50",
"3$	c #B85751",
"4$	c #BB5C58",
"5$	c #BF6163",
"6$	c #C96A70",
"7$	c #D6757E",
"8$	c #DEA0A9",
"9$	c #C38E9E",
"0$	c #EB88A2",
"a$	c #E589A2",
"b$	c #EE88A4",
"c$	c #E3BAC2",
"d$	c #9E6168",
"e$	c #C96672",
"f$	c #BD6266",
"g$	c #BC595E",
"h$	c #B85851",
"i$	c #9D5D51",
"j$	c #D9C6C1",
"k$	c #AEADAD",
"l$	c #ABABAB",
"m$	c #DBDBDB",
"n$	c #BCB7BB",
"o$	c #BDC1C0",
"p$	c #B8BBB0",
"q$	c #C0A198",
"r$	c #B15A55",
"s$	c #C76664",
"t$	c #CF6D71",
"u$	c #D37A87",
"v$	c #DA8897",
"w$	c #E8AFBD",
"x$	c #CEA0B1",
"y$	c #EF9CB7",
"z$	c #E89EB6",
"A$	c #F49CB8",
"B$	c #EAC5D2",
"C$	c #A7717C",
"D$	c #D77888",
"E$	c #CD6E78",
"F$	c #CA6267",
"G$	c #A65C58",
"H$	c #CAAAA2",
"I$	c #BEBCB6",
"J$	c #BBBCBC",
"K$	c #B8B8B8",
"L$	c #C3C4C2",
"M$	c #C6D0CA",
"N$	c #E1D7D7",
"O$	c #B38A87",
"P$	c #BD7470",
"Q$	c #D87A7A",
"R$	c #DB878F",
"S$	c #E49BA9",
"T$	c #EEB5C3",
"U$	c #D4A8B6",
"V$	c #F4ABC2",
"W$	c #ECAEC0",
"X$	c #FBABC4",
"Y$	c #F1CCD8",
"Z$	c #B17C84",
"`$	c #DF8492",
" %	c #D47880",
".%	c #C06E6B",
"+%	c #B7938F",
"@%	c #D4D3CF",
"#%	c #CBCECD",
"$%	c #C6C6C6",
"%%	c #D0CECE",
"&%	c #D2D8D8",
"*%	c #D7D2D9",
"=%	c #B28781",
"-%	c #D28480",
";%	c #E28E91",
">%	c #E498A5",
",%	c #E9AAB5",
"'%	c #97827F",
")%	c #A38889",
"!%	c #D9ACB5",
"~%	c #F8B5C5",
"{%	c #F1B8C5",
"]%	c #FBB3C6",
"^%	c #E7B6C0",
"/%	c #9D8389",
"(%	c #9B7C82",
"_%	c #D599A0",
":%	c #E58C94",
"<%	c #D58282",
"[%	c #C2958B",
"}%	c #E1DCD5",
"|%	c #CBD8D8",
"1%	c #D2D1D4",
"2%	c #D2D0D1",
"3%	c #D9D9D9",
"4%	c #D8D7DC",
"5%	c #E1DBD9",
"6%	c #DDC4BD",
"7%	c #B5736C",
"8%	c #EEA3A7",
"9%	c #F2AAB7",
"0%	c #F8B5C2",
"a%	c #F8BAC9",
"b%	c #F6BBCB",
"c%	c #F9BBCB",
"d%	c #F8BBCA",
"e%	c #F8BFCD",
"f%	c #F5BDCB",
"g%	c #F1B2BE",
"h%	c #F3ABB6",
"i%	c #EFA3AA",
"j%	c #A66965",
"k%	c #E4C8BD",
"l%	c #E7E6E6",
"m%	c #D8D7D7",
"n%	c #D8D8D8",
"o%	c #BFBFBF",
"p%	c #C9C9C8",
"q%	c #D6D6D8",
"r%	c #D9DBD9",
"s%	c #DDDBD7",
"t%	c #E5D9D6",
"u%	c #C6A19F",
"v%	c #AA7674",
"w%	c #E2A6A8",
"x%	c #FFBAC1",
"y%	c #FFB4BD",
"z%	c #FAB6C3",
"A%	c #F9B7C3",
"B%	c #F9BAC5",
"C%	c #F8BCC5",
"D%	c #E3A5A9",
"E%	c #AF7378",
"F%	c #CCA7A7",
"G%	c #EADED8",
"H%	c #D8DFD4",
"I%	c #D7D7D7",
"J%	c #D4D4D1",
"K%	c #CCD0CF",
"L%	c #D3DBDB",
"M%	c #CFD8D7",
"N%	c #E2E1DA",
"O%	c #C2AEA7",
"P%	c #BC9D98",
"Q%	c #BC9996",
"R%	c #C29890",
"S%	c #C29991",
"T%	c #BD988E",
"U%	c #BF9E94",
"V%	c #C4B5AB",
"W%	c #F2EDE6",
"X%	c #E3DBD7",
"Y%	c #DAD4D4",
"Z%	c #D9D8D9",
"`%	c #D2D2D2",
" &	c #DCD9D9",
".&	c #DAD8D6",
"+&	c #D9D8DA",
"@&	c #DBD9DB",
"#&	c #DAD8D8",
"$&	c #D8D5D1",
"%&	c #E4E0DB",
"&&	c #E8E4E1",
"*&	c #D7D8D4",
"=&	c #D6DAD6",
"-&	c #D5D8D5",
";&	c #D7D8D8",
">&	c #CDCBCC",
",&	c #DCDBDC",
"'&	c #D7D7D8",
")&	c #D9D9DA",
"!&	c #D8D8D9",
"~&	c #D7D8D9",
"{&	c #D9D8D8",
"                                                                ",
"                      . + + + @ @ # $ % &                       ",
"                * = + - # @ - ; ; @ > , # ' = )                 ",
"              ! ~ { ] ^ / ( _ : < [ } | 1 2 3 4 5               ",
"          6 7 8 9 0 a b c d e f g h i j k l m n o p q           ",
"        r s t u v w x y z A B C D E F G H I J K L M N O         ",
"        P Q R S T U V W X Y Z `  ...+.@.#.$.%.&.*.=.-.;.        ",
"      >.,.'.).!.~.{.].^./.(._.:.<.[.}.|.1.2.3.4.5.6.7.8.9.      ",
"    0.a.b.c.d.e.f.g.h.i.j.k.l.m.n.      o.p.q.r.s.t.u.v.w.x.    ",
"    y.z.A.B.C.D.E.F.G.H.I.J.K.L.M.        N.O.P.Q.R.S.T.U.V.    ",
"  W.X.Y.Z.`. +.+++@+#+$+%+&+*+=+-+        ;+>+,+'+)+!+~+{+]+^+  ",
"  /+(+_+:+<+[+}+|+1+2+3+4+5+6+7+8+        9+0+a+b+c+d+e+f+g+h+  ",
"  i+j+k+l+m+n+o+p+q+r+s+    t+u+v+        w+x+y+z+A+B+C+D+E+F+  ",
"G+H+I+J+K+L+M+N+O+P+Q+        R+S+        T+U+V+W+X+Y+Z+`+ @.@+@",
"@@#@$@%@&@*@=@-@;@>@,@        '@)@        !@~@{@]@^@/@(@_@:@<@[@",
"}@|@1@2@3@4@5@6@7@8@9@0@    a@b@c@        d@e@f@g@h@i@j@k@l@m@n@",
"o@p@q@r@s@t@u@v@w@x@y@z@    A@B@C@        D@E@F@G@H@I@J@K@L@M@N@",
"@@O@P@Q@R@S@T@U@V@W@X@Y@    Z@`@ #        .#+#@###$#%#&#*#=#-#;#",
">#,#'#)#!#~#{#]#^#/#(#_#    :#<#[#        }#|#1#2#3#4#5#6#7#8#9#",
"0#a#b#c#d#e#f#g#h#i#j#k#    l#m#n#o#p#    q#r#s#t#u#v#w#x#y#z#A#",
"  B#C#D#E#F#G#H#I#J#K#L#    M#N#O#P#Q#    R#S#T#U#V#W#X#Y#Z#`#  ",
"   $.$+$@$#$$$%$&$*$=$-$    ;$>$,$'$)$    !$~${$]$^$/$($_$:$<$  ",
"  [$}$|$1$2$3$4$5$6$7$8$    9$0$a$b$c$    d$e$f$g$h$i$j$k$l$m$  ",
"    n$o$p$q$r$s$t$u$v$w$    x$y$z$A$B$    C$D$E$F$G$H$I$J$K$    ",
"      L$M$N$O$P$Q$R$S$T$    U$V$W$X$Y$    Z$`$ %.%+%@%#%$%      ",
"      %%&%*%  =%-%;%>%,%'%)%!%~%{%]%^%/%(%_%:%<%[%}%|%1%2%      ",
"        o@3%4%5%6%7%8%9%0%a%b%c%d%e%f%g%h%i%j%k%l%m%n%o%        ",
"          p%q%r%s%t%u%v%w%x%y%z%A%B%C%D%E%F%G%H%I%m$$%          ",
"            J%K%L%M%N%5+O%P%Q%R%S%T%U%V%W%X%Y%Z%G+`%            ",
"                 &.&+&@&#&$&%&    &&$&*&=&-&;&>&                ",
"                      ,&'&n%n%)&)&!&~&{&3%                      ",
"                                                                "};
