/* XPM */
static char * help_xpm[] = {
"32 32 6 1",
" 	c None",
".	c #FFFFFF",
"+	c #000000",
"@	c #FFFF00",
"#	c #808080",
"$	c #C0C0C0",
"           ++++++++             ",
"         ++ @ @ @ @++           ",
"        +@ @ @ @ @ @ +          ",
"       +++++++++@ @ @@+         ",
"      + @@@@@@@@ + @@@@+        ",
"     +@@@@@@@@@@@@+@@@$+        ",
"    +@@@@@@@@@@@@@@+@$@ +       ",
"   +@@@@@@@@@@@@@@@@+@ @+       ",
"   +@@@@@@@@@@@@@@@@  @ +       ",
"  +@@@@@@@@@@@@@@@@@@+ @+       ",
"  +@@@@@@@+++@@@@@@@@+@ +       ",
" +@@@@@@@+ + +@@@@@@@+  +       ",
" +@@@@@@+ @+  +@@@@@@+ +        ",
" +@@@@@@+@+   +@@@@@@+ +        ",
" +@@@@@@++    +@@@@@@++         ",
" ++++++++    +@@@@@@ +          ",
"            +@@@@@@@+           ",
"           +@@@@@@@+            ",
"          +@@@@@@@++            ",
"           @@@@@@+@+            ",
"         +@@@@@@ + +            ",
"         +@@@@@@+ @+            ",
"         +@@@@@@+@+             ",
"         +@@@@@@++ +            ",
"         ++++++++@++            ",
"          +@@@@@@+ +            ",
"         ++++++++ @+            ",
"         +@@@@@@+@ +            ",
"         +@@@@@@+ @+            ",
"         +@@@@@@+@+             ",
"         +@@@@@@++              ",
"         ++++++++               "};
