/* XPM */
static char * p20_xpm[] = {
"32 32 34 1",
" 	c None",
".	c #FFFFFF",
"+	c #000000",
"@	c #838383",
"#	c #FCFCFC",
"$	c #868686",
"%	c #151515",
"&	c #E4E4E4",
"*	c #2A2A2A",
"=	c #DDDDDD",
"-	c #BEBEBE",
";	c #919191",
">	c #CBCBCB",
",	c #494949",
"'	c #424242",
")	c #B4B4B4",
"!	c #545454",
"~	c #D3D3D3",
"{	c #6E6E6E",
"]	c #686868",
"^	c #AEAEAE",
"/	c #EEEEEE",
"(	c #757575",
"_	c #9A9A9A",
":	c #1F1F1F",
"<	c #383838",
"[	c #F5F5F5",
"}	c #A8A8A8",
"|	c #101010",
"1	c #A2A2A2",
"2	c #242424",
"3	c #C4C4C4",
"4	c #323232",
"5	c #5E5E5E",
"   ;++++++++++++++++++++++++$   ",
"    +                      %$   ",
"    +                      %$   ",
"     +  *+++               %$   ",
"     +  *;                 %$   ",
"     )+ *;                 %$   ",
"     -+ *;                 %$   ",
"     -+ *+++               %$   ",
"     -+ *;                 %$   ",
"     -+ *;                 %$   ",
"     -+ *;                 %$   ",
"     -+ *+++               %$   ",
"     -+ *;                 %$   ",
"     -+ *;                 %$   ",
"     -+ *;                 %$   ",
"     -+ *(>>               %$   ",
"     -+ *(>>               %$   ",
"     -+ *;                 %$   ",
"     -+ *;                 %$   ",
"     -+ *;                 %$   ",
"     -+ *+++               %$   ",
"     -+ *;                 %$   ",
"     -+ *;                 %$   ",
"     -+ *;                 %$   ",
"     -+.*+++.............. %$   ",
"     -+.*;.................%$   ",
"     -+.*;.................%$   ",
"     -+.*;.................%$   ",
"     -+.*+++...............%$   ",
"      +....................+    ",
"      ++..................3+    ",
"       ++++++++++++++++++++     "};
